<svg id="レイヤー_1" data-name="レイヤー 1" xmlns="http://www.w3.org/2000/svg" viewBox="0 0 200 200"><defs><style>.cls-1{fill:#697a6d;}.cls-2{fill:#fff;}</style></defs><title>logo.</title><rect class="cls-1" width="200" height="200"/><path class="cls-2" d="M956.84,466.26c.56-.87,1.28-1.82,1.65-1.82.56,0,2.27,1.68,2.27,2.32,0,.4-.56.62-1.26.62h-4.26v3.84c0,1.23.06,9.38.06,10.41,0,.65-.37.95-1.24.95-.5,0-.75-.28-.75-.81,0-.87.17-9.07.17-10.55a18.74,18.74,0,0,1-6.05,6.88c-.73.45-1.29-.16-.7-.75a22.62,22.62,0,0,0,6-10h-5c-.36,0-.61-.11-.61-.56s.25-.56.61-.56h5.69c0-1.93-.12-3.95-.28-5.18a46.9,46.9,0,0,1-5.16.42c-.78,0-.89-.73-.08-.92,2.58-.42,7.39-1.29,9.77-2.5.65-.33.76-.33,1.35.14a5.34,5.34,0,0,1,1.17,1.32c.34.59-.14,1.06-1.23.48-.64.16-1.85.42-3.33.67.28.08.47.22.47.39s-.25.5-.86.59c0,.81,0,2.69-.06,4.59Zm3.33,6.69a1.13,1.13,0,0,1-1,1.35c-.7.11-1.09-.51-1.68-1.43a18.9,18.9,0,0,0-1.37-1.79c-.36-.42-.17-1,.53-.82C958.26,470.6,960,471.61,960.17,473ZM969,461.53c.42-.56,1-1.21,1.28-1.21.59,0,2.3,1.26,2.3,1.85,0,.37-.45.65-1,.87-.2,3.7.11,15.18.11,17.14,0,.86-.53,1.06-1.34,1.06a.86.86,0,0,1-.9-.95v-1.65h-6.07v2.15c0,.62-.42.95-1.32.95a.71.71,0,0,1-.81-.81c0-3.13.31-16.35-.11-20.21a.38.38,0,0,1,.39-.4,7.63,7.63,0,0,1,2.83,1.21Zm.5,16c0-4.34.08-12.41.06-14.87h-6.11c-.11,1.68-.11,7.19-.11,8.15l0,6.72Z" transform="translate(-860 -440)"/><path class="cls-2" d="M962.27,503.38c2.35,2.6,6,3.89,9.94,4.53.87.11.7.65.17.84a2.07,2.07,0,0,0-1.12.79c-.4.56-.59.7-1.32.53a14.89,14.89,0,0,1-8.88-6.41c0,3.19.09,5.15.09,5.93,0,.59-.45,1-1.37,1-.56,0-.79-.31-.79-.84,0-.78.06-2.46.09-5.21a22.21,22.21,0,0,1-11.09,6c-.87.19-1.15-.59-.37-.9,4.4-1.6,7.51-3.58,9.55-6.24h-9c-.36,0-.61-.12-.61-.56s.25-.56.61-.56H959.1V500h-5v.54c0,.61-.45.89-1.26.89a.69.69,0,0,1-.76-.78c0-1.85.17-6.83-.11-9.35a.33.33,0,0,1,.39-.37,7.2,7.2,0,0,1,2.27.93H965.8c.42-.56.92-1.12,1.23-1.12.59,0,2.32,1.28,2.32,1.93,0,.45-.59.67-1.15.89,0,1.88,0,5.52,0,6.42s-.45,1.09-1.2,1.09-.84-.51-.84-.95V500H961v2.22h7.11c.59-.84,1.29-1.8,1.71-1.8s2.49,1.63,2.52,2.3c0,.39-.45.62-1.52.62Zm-14-14.26c-.36,0-.62-.11-.62-.56s.26-.56.62-.56h7.56c0-.78-.11-1.65-.17-2.24,0-.28.11-.39.37-.39,1.12,0,2.85.11,2.85.7,0,.42-.42.65-1.06.73V488h4.59c-.06-.75-.14-1.65-.2-2.24,0-.28.12-.39.37-.39,1.12,0,2.91.11,2.91.73,0,.42-.42.64-1.09.73V488h3.69c.62-.92,1.43-2,1.88-2s2.66,1.76,2.66,2.46c0,.42-.5.67-1.57.67h-6.66v1.54c0,.59-.45.82-1.23.82a.71.71,0,0,1-.79-.73c0-.39,0-.93,0-1.63h-4.59v1.63c0,.59-.42.81-1.21.81a.69.69,0,0,1-.78-.73c0-.39,0-1,0-1.71Zm6.33,3.9-.42.08c0,.45,0,1.43-.06,2.24h5V493Zm4.53,5.9v-2.46h-5v.06l0,2.4Zm1.94-3.58h5.2V493h-4.5v.08c0,.22-.28.39-.7.5Zm5.15,3.58,0-2.46H961v2.46Z" transform="translate(-860 -440)"/><path class="cls-2" d="M968,526.25c.64-1,1.48-2.1,2-2.1s2.8,1.82,2.8,2.55c0,.42-.5.67-1.7.67h-8.77a22.28,22.28,0,0,1,.31,3.84c0,5.29-2.24,7-4.4,7-.84,0-1-.2-1.54-.82a3.85,3.85,0,0,0-1.7-.95c-.84-.28-.73-1.15.19-1.06.7.05,1.93.22,3.14.22s2.21-1.4,2.21-4.7a19.19,19.19,0,0,0-.28-3.56H947.93c-.36,0-.61-.11-.61-.56s.25-.56.61-.56H960a13.94,13.94,0,0,0-3-5.35c-.64-.75.22-1.54,1.06-.89a13.26,13.26,0,0,1,2.58,2.88,32.78,32.78,0,0,0,5-5.82H951.4c-.36,0-.61-.11-.61-.56s.25-.56.61-.56h14.34c.5-.53,1.18-1.09,1.48-1.07.48,0,2.33,1.68,2.24,2.55-.05.53-.72.65-1.54.87a37,37,0,0,1-6.58,5.82,11.59,11.59,0,0,1,.76,2.13Z" transform="translate(-860 -440)"/><path class="cls-2" d="M952.78,548.68c0,1.09,0,2.18-.09,3.36-.14,4.31-.61,9.86-5,13.5-.64.58-1.37.05-.81-.7,2.66-3.53,3.72-7,3.78-13.61,0-2.55,0-5.69-.25-8.54,0-.45.14-.59.5-.53a8,8,0,0,1,2.13,1h14.28c.42-.56,1-1.21,1.29-1.21.58,0,2.26,1.24,2.26,1.85,0,.37-.47.62-1,.84,0,1.35,0,3.19,0,3.92s-.45,1.07-1.26,1.07c.73.42,1.93,1.51,1.93,2s-.42.59-1.42.59h-7.34c.31.17.5.36.5.56,0,.45-.72.64-1.34.7-.39.64-.78,1.26-1.18,1.85,2.44-.09,4.57-.28,6.42-.53-.31-.34-.62-.68-.93-1s-.11-.84.45-.72c2.55.42,4,1.76,4.23,3a1.13,1.13,0,0,1-.93,1.46,1.05,1.05,0,0,1-1.17-.54,11.93,11.93,0,0,1-.79-1.2,65.56,65.56,0,0,1-11.48,1.29c-.19.61-.5,1.15-1,1.06s-.84-1.06-.84-2.6c0-.25.14-.31.37-.31,1.37.06,2.66.08,3.86.06a16.38,16.38,0,0,0,1.12-3.14H954c-.37,0-.62-.11-.62-.56s.25-.56.62-.56h12.6c.5-.73,1.12-1.54,1.51-1.65a.93.93,0,0,1-.34-.73Zm15.34,15.82c.62-.9,1.4-2,1.85-2s2.66,1.77,2.66,2.47c0,.42-.53.67-1.57.67h-19.4c-.37,0-.62-.11-.62-.56s.25-.56.62-.56h8.79c0-1,0-2.1,0-3.19h-6.16c-.37,0-.62-.11-.62-.56s.25-.56.62-.56h6.16c0-1.09-.09-2.05-.14-2.66,0-.25.14-.39.39-.39.48,0,3,.11,3,.78s-.51.73-1.26.9v1.37h2.94c.59-.87,1.37-1.88,1.79-1.88s2.58,1.68,2.58,2.35c0,.4-.51.65-1.54.65h-5.77v3.19Zm-15.34-20.19c0,1.12,0,2.19,0,3.25h15c0-1,0-2.44,0-3.33H953.06Z" transform="translate(-860 -440)"/><path class="cls-2" d="M953,584.13c-.51,1.79-1.88,4.45-1.88,5.32s.42,1.65.42,3c0,1.2-.64,1.76-1.51,1.76A1.11,1.11,0,0,1,949,593a9.5,9.5,0,0,0,0-2.52c-.34-1-1-1.34-1.77-2a.45.45,0,0,1,.39-.81c.42.11,1.12.34,1.49.45s.47,0,.7-.37c.56-.83,1.68-3.13,2.21-4C952.41,583.09,953.22,583.4,953,584.13ZM948,576.79c1.71.17,3.44.9,3.72,2.27a1.26,1.26,0,0,1-1,1.62c-.79.14-1.21-.5-1.82-1.31a19,19,0,0,0-1.43-1.54C946.92,577.35,947.09,576.68,948,576.79Zm5.54-4.25a1.28,1.28,0,0,1-1.12,1.56c-.75.11-1.12-.58-1.7-1.4-.42-.56-.93-1.12-1.38-1.62s-.25-1.12.59-1C951.54,570.35,953.28,571.16,953.5,572.54Zm15.63,6.16c.5-.73,1.12-1.54,1.48-1.54s2.3,1.48,2.3,2.1c0,.36-.39.56-1.37.56h-17.2c-.36,0-.61-.12-.61-.56s.25-.56.61-.56h7.48c0-.34,0-.87,0-2.24h-5.57c-.37,0-.62-.12-.62-.57s.25-.55.62-.55h5.57v-2h-6.58c-.37,0-.62-.11-.62-.56s.25-.56.62-.56h6.55a22.44,22.44,0,0,0-.14-2.35c0-.28.11-.39.36-.39,1.29,0,3.31.11,3.31.83,0,.48-.56.79-1.46.93a7.94,7.94,0,0,0,0,1h4.46c.5-.73,1.12-1.54,1.48-1.54s2.3,1.48,2.3,2.1c0,.36-.4.56-1.38.56h-6.86v2h3.34c.5-.73,1.12-1.55,1.48-1.55s2.3,1.49,2.32,2.1c0,.37-.42.57-1.4.57h-5.74v2.24Zm-2.21,3.08c.42-.54,1-1.15,1.2-1.15.67,0,2.38,1.4,2.38,1.9s-.48.62-1,.84c0,2.24,0,5.83,0,8.85A2.35,2.35,0,0,1,967,594.6c-1.09,0-.45-1-2-1.54a.45.45,0,0,1,.11-.9,13.29,13.29,0,0,0,1.4.09c.65,0,.87-.23.93-.9,0-.45,0-1,0-1.62h-8.29l0,4c0,.62-.42.9-1.29.9a.71.71,0,0,1-.78-.79c0-2.26.22-9.82-.08-12.76a.34.34,0,0,1,.39-.37,6.87,6.87,0,0,1,2.52,1.07Zm-7.68,6.83h8.29v-2.38h-8.29v2.38Zm.09-5.69c0,.45-.06,1.29-.06,2.19h8.26v-2.22h-8.06Z" transform="translate(-860 -440)"/><path class="cls-2" d="M954.9,618.18c2-.37,3.67-.76,5.1-1.12,1.2-.31,1.43.56.31,1a59.45,59.45,0,0,1-11.09,3c-.11.65-.36,1.23-.84,1.23s-1.06-1.28-1.32-2.8c0-.25.09-.33.31-.36,2.1-.17,4-.39,5.66-.64V614.9h-4.76c-.37,0-.62-.11-.62-.56s.25-.56.62-.56H953v-3.89h-2.89V611c0,.62-.42.9-1.26.9a.69.69,0,0,1-.78-.76c0-2.24.22-9.69-.08-12.63a.34.34,0,0,1,.39-.36,6.63,6.63,0,0,1,2.29.92h6.86c.37-.47.76-.92,1-.92.53,0,2.1,1.18,2.1,1.79,0,.37-.45.62-.92.79-.06,2.24,0,8.51,0,9.68,0,.87-.42,1.07-1.14,1.07s-.82-.51-.82-1v-.62H954.9v3.89h1.71c.53-.78,1.18-1.65,1.54-1.65.53,0,2.24,1.57,2.24,2.18,0,.4-.47.59-1.29.59h-4.2Zm-4.17-18a1.82,1.82,0,0,1-.56.14c0,.68,0,2.41,0,3.64h2.94v-3.78Zm2.33,8.6v-3.7h-2.94v.09l0,3.61ZM954.9,604h3c0-1.59,0-3,0-3.78h-2.44a.79.79,0,0,1-.56.48Zm3,4.82,0-3.7h-3v3.7Zm11.59-1.12c.54-.56,1.15-1.09,1.49-1.09a3.28,3.28,0,0,1,2.07,2.13c0,.47-.7.7-1.51.72a26.4,26.4,0,0,1-4.23,4.06,16.25,16.25,0,0,1,.39,3.56c0,4-1.71,5.63-3.55,5.63-.65,0-.82-.2-1.21-.7a2.64,2.64,0,0,0-1.4-.87c-.73-.25-.64-1,.14-1s1.57.19,2.44.19,1.68-1.28,1.68-3.55a14.63,14.63,0,0,0-2-7.67.65.65,0,0,1-.14-.34h-2.77c-.36,0-.61-.11-.61-.56s.25-.56.61-.56Zm-7.89-7.34c-.37,0-.62-.11-.62-.56s.25-.56.62-.56h7.75a2.75,2.75,0,0,1,1.26-.86,3.2,3.2,0,0,1,2,2.12c0,.51-.7.7-1.51.7a29.43,29.43,0,0,1-3.64,3,3.45,3.45,0,0,1,.78,1.09,1.11,1.11,0,0,1-.56,1.51c-.5.17-.81,0-1.23-.44s-.89-1.15-1.57-1.8a14.39,14.39,0,0,0-1.9-1.54c-.39-.25-.17-.89.45-.78a8.71,8.71,0,0,1,3.19,1.29,18.36,18.36,0,0,0,2.52-3.17Zm3.44,8.46a11.34,11.34,0,0,1,1.93,3.5,17.23,17.23,0,0,0,2.44-3.5Z" transform="translate(-860 -440)"/></svg>